 <svg  version="1.0" xmlns="http://www.w3.org/2000/svg"  width="1536.000000pt" height="1536.000000pt" viewBox="0 0 1536.000000 1536.000000"  preserveAspectRatio="xMidYMid meet">  <g transform="translate(0.000000,1536.000000) scale(0.100000,-0.100000)" fill="#faf2c5" stroke="none"> <path d="M6324 15351 c9 -15 -20 -21 -127 -26 -94 -5 -181 -15 -392 -46 -44 -6 -105 -15 -136 -19 -31 -4 -79 -12 -105 -18 -87 -19 -158 -33 -209 -41 -53 -9 -119 -24 -199 -47 -26 -8 -59 -14 -72 -14 -13 0 -41 -6 -61 -14 -21 -7 -63 -20 -93 -29 -95 -28 -253 -77 -290 -91 -59 -22 -104 -37 -135 -46 -36 -10 -89 -29 -130 -46 -16 -7 -66 -27 -110 -45 -374 -150 -733 -334 -1099 -562 -36 -22 -260 -173 -316 -212 -142 -100 -383 -289 -475 -374 -33 -31 -83 -75 -110 -98 -66 -55 -358 -343 -476 -469 -206 -221 -404 -466 -549 -678 -25 -37 -66 -94 -91 -129 -25 -34 -49 -69 -53 -77 -9 -19 -23 -42 -70 -115 -55 -84 -136 -222 -136 -231 0 -4 -7 -15 -15 -24 -14 -15 -100 -177 -193 -365 -76 -151 -115 -240 -242 -550 -72 -176 -220 -651 -256 -820 -9 -44 -21 -93 -26 -110 -5 -16 -14 -52 -18 -80 -21 -117 -32 -173 -42 -219 -6 -26 -14 -74 -18 -105 -4 -31 -13 -92 -19 -136 -52 -366 -56 -431 -56 -940 0 -448 9 -621 46 -875 11 -80 24 -170 28 -201 5 -31 13 -79 19 -105 17 -77 32 -155 42 -209 11 -64 28 -137 46 -201 8 -28 14 -59 14 -69 0 -9 7 -38 15 -64 8 -25 29 -93 46 -151 17 -58 37 -120 45 -138 8 -18 14 -39 14 -47 0 -8 6 -29 14 -47 17 -42 35 -94 46 -133 10 -38 29 -91 46 -130 7 -16 31 -75 52 -130 43 -108 109 -261 123 -285 5 -8 12 -22 15 -30 10 -29 37 -85 60 -130 13 -25 49 -94 80 -155 31 -60 64 -123 75 -140 10 -16 23 -39 28 -50 13 -30 130 -225 156 -260 12 -16 25 -37 29 -45 13 -28 78 -128 141 -215 19 -27 43 -61 52 -75 40 -58 105 -144 213 -280 319 -404 724 -805 1144 -1135 112 -88 166 -127 316 -230 19 -13 53 -37 76 -53 49 -35 282 -182 289 -182 2 0 23 -13 47 -29 48 -32 111 -67 268 -149 58 -30 128 -67 157 -82 65 -36 339 -157 498 -220 44 -17 94 -37 110 -44 38 -16 94 -36 120 -43 11 -3 34 -11 52 -19 17 -8 40 -14 50 -14 10 0 23 -4 29 -9 8 -7 138 -49 304 -97 30 -9 73 -22 95 -30 23 -8 50 -14 62 -14 11 0 43 -6 69 -14 81 -23 188 -46 212 -46 13 0 31 -4 41 -10 10 -5 49 -14 87 -19 38 -5 107 -17 154 -26 124 -23 367 -55 505 -65 66 -5 170 -14 230 -19 305 -30 863 -6 1295 55 195 28 218 32 266 42 27 6 76 16 109 22 128 23 152 28 205 40 30 6 77 18 104 26 26 8 58 14 69 14 12 0 39 6 62 14 22 8 65 21 95 30 166 48 296 90 304 97 6 5 19 9 29 9 10 0 33 6 50 13 41 17 96 37 122 44 11 3 34 11 50 18 17 7 64 27 105 43 281 112 606 266 810 385 25 15 54 31 65 36 11 5 37 21 58 35 21 14 40 26 42 26 7 0 240 147 289 182 23 16 57 40 76 53 150 103 204 142 316 230 421 331 814 721 1140 1130 112 141 177 227 216 285 10 14 30 43 46 65 55 77 118 171 125 185 4 8 15 27 25 41 29 45 179 293 186 309 3 8 15 29 25 45 11 17 40 71 65 120 25 50 61 119 80 155 32 61 82 168 111 235 7 17 29 66 48 110 20 44 47 112 62 150 14 39 30 78 36 87 5 10 19 48 30 85 12 38 27 84 34 103 28 78 37 106 45 135 4 17 12 41 18 55 6 14 24 72 41 130 17 58 38 126 46 151 8 26 15 56 15 67 0 11 6 42 14 68 18 62 35 135 46 199 10 54 25 132 42 209 6 26 14 74 19 105 42 298 51 372 59 476 5 66 14 170 19 230 14 136 14 607 1 735 -5 52 -12 136 -15 185 -5 84 -19 199 -46 390 -6 44 -15 105 -19 136 -4 31 -12 79 -18 105 -10 46 -21 102 -42 219 -4 28 -13 64 -18 80 -5 17 -17 66 -26 110 -36 169 -184 644 -256 820 -127 310 -166 399 -242 550 -93 188 -179 350 -193 365 -8 9 -15 20 -15 24 0 9 -81 147 -136 231 -48 74 -61 96 -70 115 -4 8 -27 41 -51 72 -24 31 -43 59 -43 63 0 4 -19 32 -43 63 -23 31 -59 82 -79 112 -21 30 -48 66 -61 80 -12 14 -53 65 -90 114 -76 102 -191 235 -326 380 -118 126 -410 414 -476 469 -27 23 -77 67 -110 98 -143 132 -392 321 -651 493 -395 265 -803 480 -1239 655 -44 18 -93 38 -110 45 -41 17 -94 36 -130 46 -31 9 -76 24 -135 46 -37 14 -195 63 -290 91 -30 9 -72 22 -93 29 -20 8 -48 14 -61 14 -13 0 -46 6 -72 14 -80 23 -146 38 -199 47 -51 8 -122 22 -209 41 -26 6 -74 14 -105 18 -31 4 -92 13 -136 19 -211 31 -298 41 -392 46 -107 5 -136 11 -127 26 3 5 -171 9 -416 9 -245 0 -419 -4 -416 -9z m891 -811 c72 -5 159 -14 195 -19 36 -5 119 -17 185 -26 66 -9 152 -23 190 -30 39 -8 99 -19 135 -25 104 -19 276 -60 390 -94 25 -8 72 -21 105 -31 33 -10 76 -23 95 -30 19 -7 64 -22 100 -34 160 -50 291 -100 460 -174 19 -9 62 -28 95 -42 74 -33 290 -141 368 -183 31 -18 83 -46 115 -63 66 -36 184 -108 292 -179 41 -27 82 -53 90 -56 13 -7 69 -47 155 -112 17 -12 48 -34 70 -48 111 -73 406 -324 575 -489 318 -311 436 -444 670 -755 59 -80 120 -159 134 -176 14 -18 26 -34 26 -37 0 -3 19 -34 43 -69 23 -35 47 -73 54 -84 100 -163 146 -239 174 -289 18 -33 43 -78 55 -100 25 -46 149 -295 169 -340 7 -16 26 -59 43 -95 16 -36 44 -101 62 -145 18 -44 45 -111 61 -149 16 -38 29 -75 29 -82 0 -7 6 -28 14 -46 14 -31 88 -269 121 -383 7 -27 21 -73 29 -102 9 -28 16 -62 16 -74 0 -12 7 -42 15 -68 24 -79 63 -283 90 -476 9 -66 21 -149 26 -185 5 -36 17 -182 26 -325 15 -227 15 -298 5 -560 -7 -165 -19 -347 -27 -405 -8 -58 -21 -161 -30 -230 -9 -69 -22 -156 -30 -195 -24 -125 -44 -219 -55 -270 -6 -27 -15 -70 -20 -95 -4 -25 -13 -56 -18 -70 -6 -14 -18 -52 -27 -85 -9 -33 -30 -103 -46 -155 -16 -53 -29 -101 -29 -107 0 -7 -6 -27 -14 -45 -16 -38 -26 -65 -96 -253 -29 -77 -70 -176 -91 -221 -21 -44 -39 -84 -39 -88 0 -9 -156 -324 -179 -361 -11 -16 -36 -61 -56 -100 -46 -86 -108 -186 -202 -329 -40 -59 -73 -110 -73 -111 0 -6 -79 -116 -141 -197 -160 -209 -280 -350 -498 -583 -78 -83 -361 -346 -446 -413 -38 -31 -106 -86 -150 -123 -44 -37 -116 -92 -160 -122 -190 -132 -345 -237 -414 -278 -40 -24 -88 -52 -105 -63 -17 -10 -51 -29 -76 -43 -25 -13 -61 -34 -80 -45 -80 -48 -471 -238 -489 -238 -5 0 -22 -6 -38 -14 -15 -8 -64 -29 -108 -46 -44 -18 -111 -45 -149 -61 -38 -16 -73 -26 -77 -22 -4 5 -10 413 -12 908 -3 562 -8 934 -15 990 -27 218 -79 414 -154 574 -21 46 -38 93 -36 104 3 19 20 27 123 57 17 5 57 19 90 31 33 11 76 25 95 29 53 12 104 31 203 74 17 8 52 24 77 34 207 91 332 155 478 244 34 21 65 38 68 38 15 0 353 250 402 298 15 15 75 70 131 122 94 86 184 186 281 310 19 24 47 58 63 74 15 17 27 34 27 38 0 4 19 35 43 70 65 95 160 256 191 323 120 258 139 304 186 445 106 322 144 536 161 895 8 174 8 281 0 390 -6 83 -13 180 -16 217 -3 36 -10 90 -16 120 -62 314 -87 420 -118 503 -17 43 -33 91 -41 120 -8 30 -19 63 -47 140 -71 194 -266 548 -380 688 -26 32 -31 106 -12 167 6 19 15 78 20 130 5 52 13 122 18 155 13 84 13 547 0 620 -6 33 -14 94 -19 135 -12 121 -45 264 -76 338 -8 18 -14 40 -14 49 0 16 -83 177 -105 203 -7 8 -14 20 -16 27 -8 24 -113 125 -165 158 -46 30 -77 44 -183 86 -75 30 -344 16 -496 -25 -27 -8 -67 -17 -89 -21 -21 -3 -46 -10 -55 -15 -9 -4 -43 -16 -76 -25 -64 -19 -121 -39 -170 -60 -16 -7 -50 -21 -75 -31 -25 -10 -81 -37 -125 -60 -259 -134 -348 -183 -514 -283 -101 -61 -186 -111 -190 -111 -7 0 -98 20 -231 50 -114 26 -228 47 -332 59 -43 5 -83 13 -90 18 -7 4 -53 10 -103 14 -49 4 -137 12 -195 18 -288 30 -692 30 -965 0 -55 -6 -140 -14 -190 -18 -49 -4 -96 -10 -103 -15 -7 -4 -45 -11 -85 -16 -109 -12 -254 -39 -397 -75 -177 -43 -162 -46 -308 48 -24 15 -45 27 -48 27 -2 0 -46 25 -97 56 -80 49 -213 120 -490 261 -37 19 -80 38 -95 43 -15 5 -52 18 -82 30 -30 12 -68 25 -85 30 -16 4 -41 12 -55 18 -44 18 -132 42 -154 42 -11 0 -43 7 -69 15 -84 25 -276 47 -368 42 -87 -4 -213 -42 -250 -73 -8 -8 -19 -14 -23 -14 -22 0 -175 -144 -185 -173 -2 -7 -9 -19 -16 -27 -22 -26 -105 -187 -105 -203 0 -9 -6 -31 -14 -49 -31 -74 -64 -217 -76 -338 -5 -41 -13 -102 -19 -135 -13 -73 -13 -536 0 -620 5 -33 13 -103 18 -155 4 -52 13 -108 20 -123 6 -16 11 -54 11 -86 0 -54 -3 -61 -58 -136 -101 -138 -232 -374 -317 -570 -38 -87 -45 -107 -45 -120 0 -8 -6 -29 -14 -47 -7 -18 -21 -58 -31 -88 -9 -30 -20 -64 -25 -75 -15 -37 -49 -159 -65 -235 -18 -87 -40 -192 -55 -270 -6 -30 -13 -86 -15 -125 -3 -38 -10 -137 -16 -220 -18 -255 6 -640 57 -895 22 -112 86 -343 119 -430 41 -110 80 -200 171 -395 31 -67 126 -228 191 -323 24 -35 43 -66 43 -70 0 -4 12 -21 28 -38 15 -16 43 -50 62 -74 97 -124 187 -224 281 -310 56 -52 116 -107 131 -122 49 -48 387 -298 402 -298 3 0 34 -17 68 -38 69 -42 194 -111 266 -147 47 -23 83 -40 197 -90 33 -14 76 -33 95 -42 85 -38 147 -61 200 -73 19 -4 62 -18 95 -29 33 -12 74 -26 90 -31 107 -31 120 -38 123 -59 2 -12 -3 -32 -11 -44 -60 -92 -166 -448 -167 -558 0 -74 -9 -80 -200 -134 -72 -21 -286 -31 -372 -17 -82 13 -220 68 -295 118 -75 50 -190 169 -254 263 -29 42 -88 129 -132 194 -80 119 -216 278 -318 372 -227 209 -456 330 -739 389 -77 17 -286 22 -306 8 -7 -5 -7 -37 -2 -102 11 -122 34 -369 50 -535 l13 -130 50 -6 c237 -30 429 -186 673 -546 34 -50 62 -95 62 -99 0 -13 162 -206 231 -273 72 -72 225 -193 289 -230 69 -40 193 -101 222 -110 18 -5 58 -19 88 -30 94 -35 205 -60 351 -78 145 -17 255 -13 473 17 38 5 73 7 77 4 12 -7 12 -1041 0 -1048 -5 -3 -40 7 -77 23 -38 16 -105 43 -149 61 -44 18 -92 38 -107 46 -14 8 -31 14 -37 14 -19 0 -406 187 -491 238 -19 11 -55 32 -80 45 -25 14 -59 33 -76 43 -17 11 -65 39 -105 63 -78 47 -273 179 -421 284 -203 145 -588 480 -749 652 -155 166 -273 299 -353 399 -124 155 -269 347 -284 376 -4 8 -41 67 -83 130 -113 170 -143 219 -189 306 -23 44 -50 93 -61 109 -23 37 -179 352 -179 361 0 4 -18 44 -39 88 -21 45 -62 144 -91 221 -70 188 -80 215 -96 253 -8 18 -14 38 -14 45 0 6 -13 54 -29 107 -16 52 -37 122 -46 155 -9 33 -21 71 -27 85 -5 14 -14 45 -18 70 -5 25 -14 68 -20 95 -6 28 -17 82 -25 120 -8 39 -21 104 -29 145 -8 41 -22 131 -31 200 -9 69 -22 172 -30 230 -8 58 -20 240 -27 405 -10 262 -10 333 5 560 9 143 21 289 26 325 5 36 17 119 26 185 27 193 66 397 90 476 8 26 15 56 15 68 0 12 7 46 16 74 8 29 22 75 29 102 33 114 107 352 121 383 8 18 14 39 14 46 0 7 13 44 29 82 16 38 43 105 61 149 18 44 46 109 62 145 17 36 36 79 43 95 20 45 144 294 169 340 12 22 37 67 55 100 28 50 74 126 174 289 7 11 31 49 55 84 23 35 42 66 42 69 0 3 12 19 26 37 14 17 75 96 134 176 234 311 355 447 665 750 175 171 468 420 580 494 22 14 53 36 70 48 103 78 144 108 149 108 3 0 25 13 48 29 66 45 220 144 244 157 54 29 164 90 214 117 74 41 291 149 365 182 33 14 76 33 95 42 169 74 300 124 460 174 36 12 81 27 100 34 19 7 62 20 95 30 33 10 80 23 105 31 114 34 286 75 390 94 36 6 97 17 135 25 39 7 124 21 190 30 66 9 147 21 181 26 33 5 130 13 215 19 85 6 179 12 209 14 88 6 583 -3 725 -14z m-3326 -2446 c31 -8 77 -22 102 -30 26 -8 52 -14 58 -14 15 0 347 -158 421 -200 8 -5 51 -30 95 -55 44 -26 87 -51 95 -55 8 -5 86 -53 174 -106 209 -127 260 -150 372 -164 86 -12 98 -11 205 13 63 14 137 31 164 37 28 6 79 18 115 26 36 9 88 20 115 24 28 4 63 13 78 19 16 6 46 11 68 11 22 0 77 6 122 14 175 31 275 38 622 43 299 4 378 2 468 -11 59 -9 127 -16 150 -16 41 0 177 -21 267 -41 25 -6 72 -14 105 -19 33 -5 87 -16 120 -25 33 -9 89 -23 124 -31 35 -8 67 -17 72 -20 5 -3 59 -12 120 -20 117 -15 219 -7 264 20 11 7 31 16 45 19 25 6 210 114 332 193 37 24 69 44 72 44 3 0 50 26 103 58 133 79 435 226 498 243 17 4 72 20 124 34 125 34 137 33 155 -9 64 -154 70 -718 10 -958 -8 -32 -14 -66 -14 -77 0 -10 -7 -32 -15 -47 -8 -16 -15 -44 -15 -63 0 -18 -5 -51 -12 -72 -12 -42 2 -153 27 -214 7 -16 16 -37 19 -45 8 -20 107 -167 137 -204 109 -132 267 -420 323 -586 26 -80 41 -124 61 -180 7 -19 20 -66 29 -105 8 -38 22 -99 30 -135 46 -202 59 -348 56 -609 -3 -272 -29 -452 -96 -671 -7 -25 -19 -65 -25 -90 -13 -52 -33 -108 -59 -165 -10 -22 -30 -66 -44 -97 -14 -31 -26 -59 -26 -63 0 -3 -12 -24 -27 -48 -36 -56 -50 -78 -63 -102 -6 -11 -19 -33 -30 -50 -11 -16 -24 -40 -29 -52 -6 -12 -34 -50 -63 -85 -30 -35 -75 -90 -100 -123 -67 -85 -297 -300 -417 -389 -55 -42 -104 -76 -107 -76 -3 0 -20 -11 -37 -24 -66 -48 -449 -246 -478 -246 -8 0 -20 -5 -26 -11 -6 -6 -26 -14 -44 -19 -19 -5 -59 -18 -89 -30 -30 -12 -77 -28 -105 -36 -27 -8 -63 -19 -80 -24 -157 -47 -269 -76 -356 -90 -31 -5 -68 -14 -83 -20 -15 -5 -44 -10 -65 -10 -21 0 -51 -4 -67 -10 -16 -5 -65 -14 -109 -19 -82 -10 -154 -21 -310 -46 -200 -32 -225 -38 -234 -49 -6 -7 37 -79 130 -216 76 -113 142 -212 146 -220 3 -8 19 -31 35 -51 15 -20 28 -40 28 -43 0 -3 46 -68 102 -143 161 -215 200 -285 250 -443 55 -175 61 -285 65 -1309 3 -811 2 -917 -12 -937 -9 -13 -25 -24 -38 -24 -12 0 -55 -7 -97 -15 -650 -125 -1450 -125 -2100 0 -42 8 -85 15 -97 15 -13 0 -29 11 -38 24 -14 20 -15 126 -12 937 5 1020 10 1123 65 1304 51 170 107 265 308 527 24 31 44 59 44 63 0 4 13 24 28 44 16 20 32 43 35 51 4 8 70 107 146 220 93 137 136 209 130 216 -9 11 -41 18 -234 49 -194 31 -233 36 -310 46 -44 5 -93 14 -109 19 -16 6 -46 10 -67 10 -21 0 -50 5 -65 10 -15 6 -52 15 -83 20 -87 14 -199 43 -356 90 -16 5 -52 16 -80 24 -27 8 -75 24 -105 36 -30 12 -70 25 -89 30 -18 5 -38 13 -44 19 -6 6 -18 11 -26 11 -29 0 -412 198 -478 246 -17 13 -34 24 -37 24 -3 0 -52 34 -107 76 -120 89 -350 304 -417 389 -25 33 -70 88 -100 123 -29 35 -57 73 -63 85 -5 12 -18 36 -29 52 -11 17 -24 39 -30 50 -13 24 -27 46 -63 102 -15 24 -27 45 -27 48 0 4 -12 32 -26 63 -14 31 -34 75 -44 97 -26 57 -46 113 -59 165 -6 25 -18 65 -25 90 -67 219 -93 399 -96 671 -3 261 10 407 56 609 8 36 22 97 30 135 9 39 22 86 29 105 21 59 35 102 61 180 43 129 177 385 260 497 30 40 54 75 54 78 0 3 9 15 19 26 32 35 131 186 131 201 0 8 4 18 10 24 5 5 17 47 26 93 14 69 15 93 6 128 -7 24 -12 58 -12 76 0 17 -7 45 -15 61 -8 15 -15 37 -15 47 0 11 -6 45 -14 77 -60 240 -54 804 10 958 17 40 36 43 123 18z"/> </g> </svg> 