 <svg  version="1.0" xmlns="http://www.w3.org/2000/svg"  width="900.000000pt" height="900.000000pt" viewBox="0 0 900.000000 900.000000"  preserveAspectRatio="xMidYMid meet">  <g transform="translate(0.000000,900.000000) scale(0.100000,-0.100000)" fill="#faf2c5" stroke="none"> <path d="M1025 8984 c-6 -8 -30 -18 -55 -21 -61 -7 -209 -58 -295 -100 -344 -171 -602 -511 -664 -878 -16 -93 -10 -6953 6 -7030 15 -74 61 -201 100 -280 172 -346 504 -597 879 -664 86 -16 6903 -15 6988 0 102 19 239 64 329 110 294 148 516 409 615 719 17 52 33 116 37 143 4 31 11 47 21 47 12 0 14 457 14 3460 0 3003 -2 3460 -14 3460 -10 0 -17 16 -21 48 -8 65 -61 223 -102 307 -120 241 -318 439 -558 558 -86 42 -234 93 -295 100 -24 3 -49 13 -56 21 -10 15 -342 16 -3465 16 -3123 0 -3455 -1 -3464 -16z m3727 -1814 c130 -13 286 -37 361 -56 209 -52 253 -65 400 -120 107 -40 373 -171 445 -219 30 -19 55 -35 57 -35 17 0 236 -163 335 -249 144 -125 314 -307 405 -433 157 -217 274 -429 360 -648 9 -25 23 -60 31 -78 8 -18 14 -39 14 -47 0 -8 6 -29 14 -47 13 -31 30 -90 61 -218 86 -354 85 -840 -2 -1210 -18 -75 -69 -249 -88 -300 -32 -85 -119 -286 -139 -324 -13 -22 -38 -68 -56 -101 -108 -198 -270 -407 -459 -595 -130 -130 -316 -285 -416 -347 -120 -75 -248 -148 -330 -187 -366 -176 -480 -195 -544 -93 -21 34 -21 45 -21 490 0 418 -2 462 -19 534 -32 128 -68 206 -122 268 -18 20 -29 38 -27 41 3 2 45 12 94 20 471 82 731 212 919 460 149 199 223 425 244 749 23 344 -47 590 -232 823 l-50 64 16 46 c52 152 49 368 -7 577 -22 82 -44 109 -91 113 -86 7 -298 -56 -445 -132 -80 -42 -147 -80 -161 -92 -8 -8 -19 -14 -23 -14 -4 0 -23 -12 -42 -27 -33 -25 -38 -26 -82 -15 -274 64 -373 75 -662 75 -292 0 -384 -10 -655 -74 -50 -11 -51 -11 -110 27 -179 116 -376 203 -529 235 -163 34 -180 28 -214 -76 -59 -182 -68 -406 -23 -568 l21 -78 -68 -92 c-66 -88 -162 -267 -162 -302 0 -9 -4 -25 -10 -35 -5 -10 -19 -76 -31 -147 -23 -141 -22 -246 5 -443 25 -175 43 -246 99 -380 82 -197 223 -365 402 -478 51 -33 210 -112 224 -112 6 0 25 -6 43 -14 57 -24 238 -68 358 -86 129 -20 127 -18 75 -86 -57 -74 -115 -209 -115 -265 0 -32 -22 -47 -100 -71 -182 -56 -328 -49 -475 23 -87 42 -171 124 -249 242 -68 102 -142 173 -229 221 -81 44 -183 71 -237 62 -50 -8 -90 -32 -90 -55 0 -22 49 -71 113 -114 132 -88 210 -193 322 -431 39 -83 59 -111 123 -175 162 -160 367 -220 649 -191 72 7 138 10 147 7 14 -6 16 -34 16 -244 -1 -267 -6 -290 -69 -326 -61 -33 -174 -11 -350 70 -195 89 -334 165 -461 251 -138 95 -154 106 -165 118 -5 5 -32 28 -60 49 -117 92 -308 283 -385 385 -18 25 -38 50 -44 55 -15 13 -136 184 -136 191 0 3 -11 20 -24 37 -91 121 -254 483 -312 697 -111 402 -134 803 -68 1200 32 191 69 323 161 575 23 64 122 262 177 355 236 403 560 728 981 985 60 36 226 122 293 151 17 8 47 20 65 28 104 45 229 87 357 121 36 9 88 23 116 31 28 8 62 14 75 14 13 0 57 7 99 15 167 33 511 45 712 25z"/> </g> </svg> 