 <svg  version="1.0" xmlns="http://www.w3.org/2000/svg"  width="512.000000pt" height="512.000000pt" viewBox="0 0 512.000000 512.000000"  preserveAspectRatio="xMidYMid meet">  <g transform="translate(0.000000,512.000000) scale(0.100000,-0.100000)" fill="#faf2c5" stroke="none"> <path d="M481 5105 c-182 -40 -341 -168 -423 -341 -61 -130 -59 -39 -56 -1927 l3 -1722 22 -65 c65 -190 220 -343 408 -403 l70 -22 1745 0 1745 0 70 22 c191 60 347 217 408 408 l22 70 0 1745 0 1745 -22 70 c-60 190 -210 342 -403 408 l-65 22 -1730 2 c-1445 1 -1740 -1 -1794 -12z m890 -855 c267 -101 333 -447 123 -640 -25 -23 -71 -53 -102 -68 -48 -22 -72 -26 -152 -26 -87 -1 -101 2 -162 31 -157 74 -248 241 -220 402 28 158 153 289 306 321 55 12 148 3 207 -20z m1784 -896 c106 -24 187 -67 266 -142 109 -102 174 -250 210 -477 17 -104 25 -1177 9 -1215 -23 -56 -54 -62 -316 -58 l-236 3 -24 28 -24 28 0 479 c0 591 -10 675 -90 772 -75 91 -239 120 -354 64 -87 -42 -143 -121 -182 -252 -15 -52 -18 -119 -21 -565 l-4 -507 -25 -23 c-25 -24 -30 -24 -254 -27 -252 -3 -276 1 -299 55 -8 21 -11 258 -9 905 l3 877 23 23 c22 22 28 23 254 26 166 2 240 0 261 -9 39 -16 57 -62 57 -143 l0 -65 73 72 c101 102 210 149 387 171 60 7 221 -4 295 -20z m-1649 -37 l24 -28 0 -885 0 -885 -24 -24 c-33 -33 -64 -37 -299 -33 l-209 3 -29 33 -29 32 0 873 c1 705 3 877 14 896 27 48 44 51 294 48 l234 -2 24 -28z"/> </g> </svg> 