 <svg  version="1.0" xmlns="http://www.w3.org/2000/svg"  width="900.000000pt" height="900.000000pt" viewBox="0 0 900.000000 900.000000"  preserveAspectRatio="xMidYMid meet">  <g transform="translate(0.000000,900.000000) scale(0.100000,-0.100000)" fill="#faf2c5" stroke="none"> <path d="M765 8433 c-33 -8 -72 -22 -87 -29 -14 -8 -33 -14 -41 -14 -21 0 -148 -66 -222 -115 -125 -83 -304 -302 -338 -412 -3 -10 -15 -43 -27 -73 -11 -30 -26 -77 -33 -105 -15 -66 -16 -6315 -1 -6390 10 -48 48 -152 83 -225 66 -140 229 -318 364 -397 122 -72 163 -89 296 -124 73 -19 143 -19 3731 -19 3588 0 3658 0 3731 19 133 35 174 52 296 124 135 79 299 257 364 397 38 80 79 194 79 220 0 39 9 60 26 60 12 0 14 463 14 3141 0 1980 -4 3138 -9 3134 -13 -7 -31 27 -31 58 0 13 -12 55 -26 93 -14 38 -28 77 -31 87 -34 111 -213 329 -338 412 -74 49 -201 115 -222 115 -8 0 -27 6 -41 14 -15 7 -57 21 -94 30 -61 15 -381 16 -3725 15 -3238 -1 -3665 -3 -3718 -16z m7412 -295 c18 -10 41 -18 51 -18 10 0 39 -11 63 -25 24 -14 51 -28 59 -32 31 -14 97 -69 157 -132 65 -68 153 -219 153 -263 1 -13 7 -34 15 -48 12 -21 14 -125 15 -632 l0 -608 -4200 0 -4200 0 0 608 c1 507 3 611 15 632 8 14 14 35 15 48 0 44 88 195 153 263 60 63 126 118 157 132 8 4 35 18 59 32 24 14 53 25 63 25 11 0 29 6 41 12 12 7 49 15 82 19 33 3 1682 6 3665 5 3413 -1 3607 -2 3637 -18z m510 -4410 c-3 -2550 1 -2384 -53 -2490 -11 -20 -29 -57 -42 -82 -36 -69 -158 -189 -247 -243 -76 -46 -156 -74 -250 -87 -114 -16 -7096 -16 -7210 0 -94 13 -174 41 -250 87 -89 54 -211 174 -247 243 -13 25 -31 62 -42 82 -54 106 -50 -60 -53 2490 l-3 2352 4200 0 4200 0 -3 -2352z"/> <path d="M920 7701 c-191 -79 -300 -239 -300 -438 0 -91 4 -108 49 -203 54 -115 134 -185 281 -241 47 -18 224 -18 270 0 173 69 244 141 311 311 18 46 18 223 0 270 -37 94 -60 130 -120 191 -102 102 -194 139 -336 138 -74 0 -101 -5 -155 -28z m262 -294 c96 -71 91 -228 -8 -286 -47 -28 -134 -29 -178 -2 -58 36 -76 72 -76 152 l0 72 45 43 c33 32 53 44 82 46 61 5 106 -3 135 -25z"/> <path d="M2410 7714 c-94 -31 -147 -64 -213 -130 -36 -37 -70 -77 -73 -88 -4 -12 -11 -27 -17 -35 -19 -23 -46 -143 -47 -202 0 -93 38 -200 100 -279 53 -68 116 -119 175 -143 6 -2 26 -10 45 -18 47 -18 252 -19 300 0 19 8 42 18 50 22 8 5 22 12 30 16 60 27 173 148 194 208 1 6 9 26 17 45 18 47 19 252 0 300 -8 19 -17 42 -22 50 -5 8 -16 30 -25 47 -23 45 -133 146 -185 170 -122 55 -235 68 -329 37z m204 -303 c59 -37 80 -78 80 -152 -1 -74 -21 -111 -77 -144 -48 -29 -143 -26 -186 5 -52 39 -71 79 -71 148 0 60 1 62 50 112 50 49 52 50 112 50 43 0 70 -6 92 -19z"/> <path d="M3935 7724 c-137 -31 -173 -46 -242 -97 -53 -39 -118 -118 -142 -172 -114 -257 0 -526 269 -638 64 -27 241 -28 302 -3 153 64 230 141 294 294 25 61 24 238 -3 302 -49 118 -132 214 -223 260 -76 37 -207 65 -255 54z m117 -317 c45 -27 71 -60 87 -110 37 -113 -89 -240 -204 -205 -113 34 -164 141 -115 239 47 90 152 125 232 76z"/> <path d="M4671 5180 c-23 -17 -45 -41 -50 -53 -23 -60 -35 -107 -41 -152 -4 -27 -12 -70 -18 -95 -6 -25 -16 -67 -23 -95 -6 -27 -15 -70 -20 -95 -12 -68 -29 -150 -41 -200 -6 -25 -17 -76 -24 -115 -49 -240 -55 -267 -70 -319 -8 -26 -14 -62 -14 -80 0 -17 -6 -51 -14 -76 -14 -43 -29 -115 -46 -210 -4 -25 -13 -61 -19 -80 -6 -19 -11 -48 -11 -65 0 -16 -6 -50 -14 -75 -15 -47 -31 -119 -45 -207 -5 -28 -12 -57 -16 -63 -4 -7 -11 -37 -15 -68 -4 -32 -12 -77 -18 -102 -6 -25 -18 -81 -27 -125 -9 -44 -23 -103 -31 -131 -8 -28 -14 -64 -14 -81 0 -17 -7 -47 -15 -66 -8 -20 -15 -53 -15 -74 0 -21 -6 -58 -14 -83 -26 -80 -46 -193 -46 -252 0 -49 4 -62 29 -90 41 -47 91 -63 146 -48 84 23 111 82 154 335 5 28 14 63 20 78 6 16 11 43 11 61 0 19 7 50 15 69 8 20 15 51 15 68 0 18 6 55 14 83 8 28 22 87 31 131 9 44 21 98 26 120 6 22 14 67 18 100 5 34 13 70 19 82 7 12 12 34 12 49 0 15 6 53 14 83 37 147 46 192 46 219 0 16 7 46 15 65 8 20 15 51 15 69 0 18 6 53 14 78 16 51 35 142 45 215 4 28 11 57 16 65 5 8 13 40 16 70 4 30 12 73 18 95 5 22 17 76 26 120 9 44 23 103 31 131 8 28 14 68 14 88 0 21 5 47 11 58 6 11 15 44 19 72 4 28 12 71 18 96 39 161 43 190 40 275 l-3 89 -43 33 c-57 44 -103 44 -161 3z"/> <path d="M3420 4559 c-35 -28 -67 -54 -70 -58 -3 -4 -48 -43 -100 -87 -113 -95 -149 -125 -164 -140 -6 -5 -56 -48 -111 -94 -55 -46 -102 -86 -105 -90 -3 -3 -27 -23 -55 -45 -27 -22 -61 -50 -75 -63 -14 -14 -58 -52 -99 -86 -41 -33 -101 -86 -135 -117 l-60 -57 0 -71 -1 -71 55 -53 c30 -29 75 -68 100 -87 25 -18 50 -38 55 -45 11 -11 199 -173 280 -240 44 -37 87 -73 159 -135 16 -14 36 -32 45 -41 9 -9 39 -33 66 -54 28 -20 52 -40 55 -44 9 -11 143 -125 186 -159 34 -26 51 -32 90 -32 87 0 144 56 144 141 0 59 -20 97 -74 139 -18 14 -59 48 -92 77 -32 28 -95 82 -139 119 -44 38 -82 71 -85 74 -3 4 -27 24 -55 46 -64 50 -97 78 -160 134 -27 25 -70 62 -95 82 -25 20 -72 61 -105 92 l-60 56 50 47 c61 58 168 150 205 178 15 11 34 27 42 35 8 8 37 33 64 55 42 35 176 150 210 180 7 5 45 37 85 70 40 33 103 90 141 126 l68 67 0 61 c0 58 -2 63 -41 101 -39 37 -45 40 -98 39 -52 0 -61 -4 -121 -50z"/> <path d="M5341 4570 c-39 -38 -41 -43 -41 -101 l0 -61 68 -67 c38 -36 104 -95 148 -131 43 -35 81 -67 84 -70 8 -9 151 -131 204 -175 27 -22 56 -47 64 -55 8 -8 27 -24 42 -35 37 -28 144 -120 205 -178 l50 -47 -60 -56 c-33 -31 -80 -72 -105 -92 -25 -20 -68 -57 -95 -82 -63 -56 -96 -84 -160 -134 -27 -22 -52 -42 -55 -46 -3 -3 -41 -36 -85 -74 -44 -37 -107 -91 -139 -119 -33 -29 -74 -63 -92 -77 -54 -42 -74 -80 -74 -139 0 -85 57 -141 144 -141 39 0 56 6 90 32 43 34 177 148 186 159 3 4 28 24 55 44 28 21 57 45 66 54 9 9 29 27 45 41 72 62 115 98 159 135 81 67 269 229 280 240 6 7 30 27 55 45 25 19 70 58 100 87 l55 53 -1 71 0 71 -60 57 c-34 31 -94 84 -135 117 -41 34 -85 72 -99 86 -14 13 -47 41 -75 63 -27 22 -52 42 -55 45 -3 4 -50 44 -105 90 -55 46 -105 89 -111 94 -15 14 -49 43 -164 140 -52 44 -99 85 -105 92 -5 6 -38 32 -72 57 -56 43 -67 47 -116 47 -50 0 -58 -3 -96 -40z"/> </g> </svg> 